<svg version="1.1" id="Layer_1" xmlns="http://www.w3.org/2000/svg" xmlns:xlink="http://www.w3.org/1999/xlink" x="0px" y="0px"
	 width="100%" viewBox="0 0 446 450" enable-background="new 0 0 446 450" xml:space="preserve">
<path fill="#000001" opacity="1.000000" stroke="none" 
	d="
M333.000000,451.000000 
	C222.401733,451.000000 111.803474,451.000000 1.000000,451.000000 
	C1.000000,327.644745 1.000000,204.289352 1.267236,80.159645 
	C2.104113,80.178230 2.714775,80.945068 3.237462,81.767807 
	C21.226501,110.083710 39.203098,138.407516 57.206650,166.714188 
	C57.821301,167.680588 58.694508,168.482559 59.816776,169.792587 
	C58.873730,162.095825 57.728188,155.203659 57.236568,148.265167 
	C55.858631,128.817627 59.438496,110.102371 65.816353,91.771126 
	C69.777351,80.386429 77.151825,71.089767 83.746048,60.947639 
	C86.797073,57.469891 89.494888,54.094181 92.415695,50.923916 
	C103.695724,38.680481 117.349503,29.663509 132.382843,22.014309 
	C161.447495,9.344758 190.998886,6.621939 221.294296,14.943410 
	C244.727097,21.379875 264.658112,33.931973 281.902466,51.399849 
	C294.772217,65.090775 303.502014,80.892006 310.050415,98.391754 
	C317.224152,120.409790 318.753204,142.424255 314.323456,165.140930 
	C314.051239,166.113312 314.077484,166.794006 313.931305,167.435379 
	C309.109436,188.589005 300.256836,207.791809 285.945007,224.237000 
	C283.544739,226.995071 283.756989,229.150436 285.837738,231.568298 
	C288.644104,234.829407 291.554199,238.001236 294.602539,241.523743 
	C296.626068,244.671539 298.466797,247.507004 300.213135,250.197021 
	C302.466278,248.762192 304.730774,247.320145 307.424469,245.895401 
	C309.570984,245.879761 311.288239,245.846817 313.342590,246.006104 
	C321.736298,247.567795 324.848694,253.901108 320.662628,261.889801 
	C318.760284,265.520233 319.613129,267.602814 321.926086,270.208435 
	C329.162262,278.360352 330.731873,288.261993 328.190857,298.238770 
	C325.996521,306.854309 325.716278,315.238770 326.507629,324.231567 
	C326.766235,330.910797 327.159119,337.226379 327.551788,343.541992 
	C328.024872,351.150879 328.792633,358.756500 328.876617,366.369690 
	C328.942841,372.373871 327.202545,378.496216 332.134033,383.632812 
	C333.157257,384.698639 333.290405,386.691162 333.662994,388.296204 
	C334.896759,393.610504 335.696960,399.056000 337.343536,404.234924 
	C338.828461,408.905609 340.476227,413.839294 343.353485,417.682800 
	C348.365814,424.378448 348.194092,429.347748 341.306610,433.824036 
	C336.225830,437.126068 331.074554,440.319519 325.677032,443.737152 
	C327.339508,445.070984 328.969116,446.205902 330.379578,447.567841 
	C331.403290,448.556274 332.136963,449.845123 333.000000,451.000000 
M180.118484,270.128571 
	C162.935226,269.025024 146.500092,264.742126 130.378296,258.222290 
	C130.888779,260.106873 131.633057,261.521271 132.671021,262.670349 
	C144.039230,275.255219 155.110123,288.132751 166.933670,300.276642 
	C185.603851,319.452637 204.649612,338.270691 223.849442,356.917969 
	C228.728333,361.656433 235.756393,362.877838 242.326965,363.597137 
	C244.396149,363.823669 247.426651,361.328430 248.905670,359.277405 
	C250.569794,356.969727 251.395569,353.822540 251.855469,350.924561 
	C253.360077,341.443604 254.931366,331.941345 255.683960,322.384827 
	C256.139374,316.601776 259.412476,314.930359 264.027344,314.780487 
	C270.330994,314.575684 276.653656,314.956909 283.442383,315.338074 
	C284.304932,315.249084 285.167450,315.160065 286.905365,315.075317 
	C296.620117,314.751984 296.620117,314.751984 298.569031,307.338135 
	C298.728729,304.190094 299.080078,301.037903 299.011536,297.894836 
	C298.821259,289.169403 301.653168,279.637146 292.689789,273.103394 
	C292.100647,272.673950 291.987579,271.629303 291.570374,270.919434 
	C289.983032,268.218506 288.579712,265.373871 286.709045,262.882172 
	C282.451843,257.211609 277.919861,251.748215 273.584961,246.134659 
	C272.229706,244.379669 271.147736,242.413651 270.646515,241.637405 
	C258.800293,248.113846 247.921921,254.843384 236.398087,260.178833 
	C218.921860,268.270233 200.109909,270.468323 180.118484,270.128571 
M322.343597,433.072784 
	C323.643616,431.463043 325.244354,430.003357 326.146545,428.195099 
	C326.842438,426.800323 326.063324,424.426971 326.972076,423.422302 
	C331.315704,418.620087 328.659454,414.649506 326.080322,410.440002 
	C320.636505,401.555145 313.766968,393.152374 313.338196,382.182800 
	C313.091431,375.869202 310.569641,373.282684 304.485077,373.698029 
	C304.256927,373.713623 303.999512,373.300751 303.788635,373.116333 
	C304.214020,367.657990 305.124481,362.211029 304.875366,356.817627 
	C304.727386,353.614532 303.667572,349.060303 301.416718,347.625977 
	C296.068726,344.217926 289.945679,341.672272 283.807159,339.948395 
	C276.158051,337.800262 276.015442,338.308044 273.077911,329.925415 
	C271.467651,332.393524 270.151947,333.826111 269.499146,335.514923 
	C267.062134,341.819275 265.276642,348.409485 262.437256,354.516113 
	C258.398926,363.201294 253.646103,371.554260 248.861786,380.692352 
	C271.110046,399.264496 293.148895,417.661865 314.264404,435.288422 
	C317.601562,434.264465 319.552277,433.665894 322.343597,433.072784 
M130.097031,257.176025 
	C128.462006,259.617493 130.394348,259.406372 132.244232,259.328888 
	C131.819839,258.760864 131.395447,258.192841 130.097031,257.176025 
z"/>
<path fill="#0090F4" opacity="1.000000" stroke="none" 
	d="
M333.468628,451.000000 
	C332.136963,449.845123 331.403290,448.556274 330.379578,447.567841 
	C328.969116,446.205902 327.339508,445.070984 325.677032,443.737152 
	C331.074554,440.319519 336.225830,437.126068 341.306610,433.824036 
	C348.194092,429.347748 348.365814,424.378448 343.353485,417.682800 
	C340.476227,413.839294 338.828461,408.905609 337.343536,404.234924 
	C335.696960,399.056000 334.896759,393.610504 333.662994,388.296204 
	C333.290405,386.691162 333.157257,384.698639 332.134033,383.632812 
	C327.202545,378.496216 328.942841,372.373871 328.876617,366.369690 
	C328.792633,358.756500 328.024872,351.150879 327.551788,343.541992 
	C327.159119,337.226379 326.766235,330.910797 326.856567,324.391968 
	C327.931641,325.485352 328.372101,326.883423 329.154724,328.052429 
	C330.090851,329.450714 331.155396,330.860443 332.459320,331.892517 
	C334.462982,333.478455 336.680176,334.810333 338.882782,336.122437 
	C339.960083,336.764282 341.167969,337.309174 342.386871,337.569305 
	C347.031616,338.560486 351.865967,338.932922 356.336975,340.417389 
	C369.053223,344.639435 381.558533,349.497620 394.279510,353.704346 
	C402.095093,356.288879 410.152740,358.142090 418.104126,360.314972 
	C422.085846,361.403046 426.102905,362.372864 430.050415,363.572540 
	C435.725922,365.297363 441.352509,367.183014 447.000000,369.000000 
	C447.000000,396.272186 447.000000,423.544373 447.000000,451.000000 
	C409.312653,451.000000 371.624969,451.000000 333.468628,451.000000 
z"/>
<path fill="#0089E9" opacity="1.000000" stroke="none" 
	d="
M313.005524,245.813873 
	C311.288239,245.846817 309.570984,245.879761 307.361053,245.540070 
	C303.069031,242.746857 299.489410,239.634781 294.419769,241.211395 
	C291.554199,238.001236 288.644104,234.829407 285.837738,231.568298 
	C283.756989,229.150436 283.544739,226.995071 285.945007,224.237000 
	C300.256836,207.791809 309.109436,188.589005 313.931305,167.435379 
	C314.077484,166.794006 314.051239,166.113312 314.671265,165.289551 
	C315.622192,165.439346 316.240204,165.680893 316.357269,166.072266 
	C317.964813,171.447479 321.300964,174.016617 327.098389,173.281296 
	C328.471222,173.107178 329.999542,173.881485 331.413300,174.349503 
	C349.602570,180.371231 367.608215,187.042374 386.033875,192.219711 
	C396.970551,195.292755 407.729156,198.547821 418.354248,202.582733 
	C427.630554,206.105423 437.431091,208.247787 447.000000,211.000000 
	C447.000000,235.354233 447.000000,259.708466 446.619720,284.612122 
	C443.665253,285.041290 440.940460,285.422302 438.546326,284.702911 
	C432.386536,282.852020 426.440704,280.293152 420.288818,278.411346 
	C401.914856,272.790924 383.468628,267.407074 365.079254,261.836243 
	C354.158112,258.527802 343.247498,255.171036 332.425903,251.555496 
	C329.181946,250.471680 326.270203,248.409775 323.175568,246.857239 
	C320.957581,245.744507 318.765289,244.431168 316.403107,243.831009 
	C315.496979,243.600800 314.151031,245.101746 313.005524,245.813873 
z"/>
<path fill="#008CEE" opacity="1.000000" stroke="none" 
	d="
M313.342590,246.006104 
	C314.151031,245.101746 315.496979,243.600800 316.403107,243.831009 
	C318.765289,244.431168 320.957581,245.744507 323.175568,246.857239 
	C326.270203,248.409775 329.181946,250.471680 332.425903,251.555496 
	C343.247498,255.171036 354.158112,258.527802 365.079254,261.836243 
	C383.468628,267.407074 401.914856,272.790924 420.288818,278.411346 
	C426.440704,280.293152 432.386536,282.852020 438.546326,284.702911 
	C440.940460,285.422302 443.665253,285.041290 446.619720,285.080750 
	C447.000000,312.687561 447.000000,340.375122 447.000000,368.531342 
	C441.352509,367.183014 435.725922,365.297363 430.050415,363.572540 
	C426.102905,362.372864 422.085846,361.403046 418.104126,360.314972 
	C410.152740,358.142090 402.095093,356.288879 394.279510,353.704346 
	C381.558533,349.497620 369.053223,344.639435 356.336975,340.417389 
	C351.865967,338.932922 347.031616,338.560486 342.386871,337.569305 
	C341.167969,337.309174 339.960083,336.764282 338.882782,336.122437 
	C336.680176,334.810333 334.462982,333.478455 332.459320,331.892517 
	C331.155396,330.860443 330.090851,329.450714 329.154724,328.052429 
	C328.372101,326.883423 327.931641,325.485352 326.990723,324.028320 
	C325.716278,315.238770 325.996521,306.854309 328.190857,298.238770 
	C330.731873,288.261993 329.162262,278.360352 321.926086,270.208435 
	C319.613129,267.602814 318.760284,265.520233 320.662628,261.889801 
	C324.848694,253.901108 321.736298,247.567795 313.342590,246.006104 
z"/>
<path fill="#0081DC" opacity="1.000000" stroke="none" 
	d="
M281.758575,51.090988 
	C264.658112,33.931973 244.727097,21.379875 221.294296,14.943410 
	C190.998886,6.621939 161.447495,9.344758 132.241196,21.708462 
	C130.546234,21.190832 129.371185,20.836645 128.173157,20.721411 
	C124.622765,20.379913 120.914833,20.663353 117.543365,19.720045 
	C112.873314,18.413410 108.547073,14.977501 103.909103,14.626370 
	C90.263275,13.593279 78.850685,6.278626 66.230141,2.480515 
	C65.717957,2.326376 65.405510,1.508586 65.000000,1.000000 
	C120.020897,1.000000 175.041794,1.000000 230.611679,1.227393 
	C231.773788,1.303191 232.386887,1.151595 233.000000,1.000000 
	C234.388885,1.000000 235.777786,1.000000 237.661743,1.355125 
	C240.022995,3.359516 241.633957,5.831698 243.803009,6.504359 
	C250.414124,8.554600 257.304565,9.685798 263.969452,11.584746 
	C277.766479,15.515783 290.966156,21.456499 305.255249,23.778780 
	C307.165100,24.089170 309.571655,24.795134 310.644348,26.175631 
	C314.275269,30.848486 319.570496,29.925173 324.290680,30.974249 
	C326.215088,31.401960 328.187775,31.690628 330.049072,32.310905 
	C337.786560,34.889454 345.479034,37.602959 353.215820,40.183697 
	C354.615997,40.650745 356.143219,40.748173 357.617584,40.978874 
	C359.574493,41.285080 361.776306,41.076084 363.458771,41.916988 
	C374.948547,47.659660 387.037567,51.473782 399.582764,54.093918 
	C403.890442,54.993599 408.011932,56.760612 412.247620,58.034504 
	C419.568024,60.236126 426.902924,62.390755 434.247986,64.508690 
	C438.482208,65.729614 442.748260,66.839912 447.000000,68.000000 
	C447.000000,79.354225 447.000000,90.708458 446.644592,102.453461 
	C436.691772,99.892693 427.056183,97.058807 417.505371,93.963486 
	C401.038452,88.626709 384.658417,83.020927 368.177338,77.729118 
	C354.478973,73.330780 340.655182,69.323563 326.949127,64.948387 
	C317.683868,61.990791 307.939697,60.857815 299.133606,55.952812 
	C294.024384,53.106976 287.594269,52.632549 281.758575,51.090988 
z"/>
<path fill="#0085E3" opacity="1.000000" stroke="none" 
	d="
M447.000000,210.531342 
	C437.431091,208.247787 427.630554,206.105423 418.354248,202.582733 
	C407.729156,198.547821 396.970551,195.292755 386.033875,192.219711 
	C367.608215,187.042374 349.602570,180.371231 331.413300,174.349503 
	C329.999542,173.881485 328.471222,173.107178 327.098389,173.281296 
	C321.300964,174.016617 317.964813,171.447479 316.357269,166.072266 
	C316.240204,165.680893 315.622192,165.439346 314.889282,164.979523 
	C318.753204,142.424255 317.224152,120.409790 310.359863,98.515152 
	C312.229584,100.378403 313.887207,102.434692 315.280487,104.656754 
	C317.362671,107.977562 319.820312,110.331253 324.159210,109.607201 
	C325.072632,109.454773 326.111816,109.804070 327.047638,110.077560 
	C334.753387,112.329536 342.445679,114.627525 350.147552,116.892868 
	C356.599854,118.790672 363.081390,120.592163 369.511169,122.562904 
	C380.693298,125.990242 390.752716,133.201508 403.166718,132.523483 
	C403.718475,132.493347 404.335602,133.094101 404.873962,133.470154 
	C411.793427,138.303879 419.797119,140.187393 427.870605,141.784836 
	C429.903687,142.187119 432.222839,141.428040 434.147614,142.035645 
	C438.518555,143.415451 442.726044,145.312958 447.000000,147.000000 
	C447.000000,168.020889 447.000000,189.041794 447.000000,210.531342 
z"/>
<path fill="#007FD8" opacity="1.000000" stroke="none" 
	d="
M447.000000,67.531342 
	C442.748260,66.839912 438.482208,65.729614 434.247986,64.508690 
	C426.902924,62.390755 419.568024,60.236126 412.247620,58.034504 
	C408.011932,56.760612 403.890442,54.993599 399.582764,54.093918 
	C387.037567,51.473782 374.948547,47.659660 363.458771,41.916988 
	C361.776306,41.076084 359.574493,41.285080 357.617584,40.978874 
	C356.143219,40.748173 354.615997,40.650745 353.215820,40.183697 
	C345.479034,37.602959 337.786560,34.889454 330.049072,32.310905 
	C328.187775,31.690628 326.215088,31.401960 324.290680,30.974249 
	C319.570496,29.925173 314.275269,30.848486 310.644348,26.175631 
	C309.571655,24.795134 307.165100,24.089170 305.255249,23.778780 
	C290.966156,21.456499 277.766479,15.515783 263.969452,11.584746 
	C257.304565,9.685798 250.414124,8.554600 243.803009,6.504359 
	C241.633957,5.831698 240.022995,3.359516 238.078400,1.355125 
	C307.556091,1.000000 377.112152,1.000000 447.000000,1.000000 
	C447.000000,23.019783 447.000000,45.041233 447.000000,67.531342 
z"/>
<path fill="#0083DE" opacity="1.000000" stroke="none" 
	d="
M447.000000,146.531342 
	C442.726044,145.312958 438.518555,143.415451 434.147614,142.035645 
	C432.222839,141.428040 429.903687,142.187119 427.870605,141.784836 
	C419.797119,140.187393 411.793427,138.303879 404.873962,133.470154 
	C404.335602,133.094101 403.718475,132.493347 403.166718,132.523483 
	C390.752716,133.201508 380.693298,125.990242 369.511169,122.562904 
	C363.081390,120.592163 356.599854,118.790672 350.147552,116.892868 
	C342.445679,114.627525 334.753387,112.329536 327.047638,110.077560 
	C326.111816,109.804070 325.072632,109.454773 324.159210,109.607201 
	C319.820312,110.331253 317.362671,107.977562 315.280487,104.656754 
	C313.887207,102.434692 312.229584,100.378403 310.380798,98.124557 
	C303.502014,80.892006 294.772217,65.090775 281.902466,51.399849 
	C287.594269,52.632549 294.024384,53.106976 299.133606,55.952812 
	C307.939697,60.857815 317.683868,61.990791 326.949127,64.948387 
	C340.655182,69.323563 354.478973,73.330780 368.177338,77.729118 
	C384.658417,83.020927 401.038452,88.626709 417.505371,93.963486 
	C427.056183,97.058807 436.691772,99.892693 446.644592,102.922119 
	C447.000000,117.354225 447.000000,131.708450 447.000000,146.531342 
z"/>
<path fill="#0085E1" opacity="1.000000" stroke="none" 
	d="
M64.531342,1.000000 
	C65.405510,1.508586 65.717957,2.326376 66.230141,2.480515 
	C78.850685,6.278626 90.263275,13.593279 103.909103,14.626370 
	C108.547073,14.977501 112.873314,18.413410 117.543365,19.720045 
	C120.914833,20.663353 124.622765,20.379913 128.173157,20.721411 
	C129.371185,20.836645 130.546234,21.190832 131.873444,21.741661 
	C117.349503,29.663509 103.695724,38.680481 92.415695,50.923916 
	C89.494888,54.094181 86.797073,57.469891 83.347855,60.944878 
	C80.212234,61.841450 77.672691,63.247776 75.252609,63.065758 
	C72.355095,62.847843 69.599007,61.135235 66.712593,60.312202 
	C57.889122,57.796257 48.998562,55.511593 40.199394,52.915638 
	C32.959095,50.779579 25.200277,49.388580 18.805115,45.701004 
	C13.053205,42.384338 6.700214,41.776436 1.000000,39.000000 
	C1.000000,26.387907 1.000000,13.775816 1.000000,1.000000 
	C22.020641,1.000000 43.041664,1.000000 64.531342,1.000000 
z"/>
<path fill="#0087E5" opacity="1.000000" stroke="none" 
	d="
M1.000000,39.468658 
	C6.700214,41.776436 13.053205,42.384338 18.805115,45.701004 
	C25.200277,49.388580 32.959095,50.779579 40.199394,52.915638 
	C48.998562,55.511593 57.889122,57.796257 66.712593,60.312202 
	C69.599007,61.135235 72.355095,62.847843 75.252609,63.065758 
	C77.672691,63.247776 80.212234,61.841450 83.097084,61.141289 
	C77.151825,71.089767 69.777351,80.386429 65.816353,91.771126 
	C59.438496,110.102371 55.858631,128.817627 57.236568,148.265167 
	C57.728188,155.203659 58.873730,162.095825 59.816776,169.792587 
	C58.694508,168.482559 57.821301,167.680588 57.206650,166.714188 
	C39.203098,138.407516 21.226501,110.083710 3.237462,81.767807 
	C2.714775,80.945068 2.104113,80.178230 1.267236,79.692657 
	C1.000000,66.645775 1.000000,53.291546 1.000000,39.468658 
z"/>
<path fill="#007FD8" opacity="1.000000" stroke="none" 
	d="
M232.666672,1.000000 
	C232.386887,1.151595 231.773788,1.303191 231.080338,1.227393 
	C231.444443,1.000000 231.888901,1.000000 232.666672,1.000000 
z"/>
<path fill="#008FF2" opacity="1.000000" stroke="none" 
	d="
M282.968170,315.086914 
	C276.653656,314.956909 270.330994,314.575684 264.027344,314.780487 
	C259.412476,314.930359 256.139374,316.601776 255.683960,322.384827 
	C254.931366,331.941345 253.360077,341.443604 251.855469,350.924561 
	C251.395569,353.822540 250.569794,356.969727 248.905670,359.277405 
	C247.426651,361.328430 244.396149,363.823669 242.326965,363.597137 
	C235.756393,362.877838 228.728333,361.656433 223.849442,356.917969 
	C204.649612,338.270691 185.603851,319.452637 166.933670,300.276642 
	C155.110123,288.132751 144.039230,275.255219 132.671021,262.670349 
	C131.633057,261.521271 130.888779,260.106873 130.378296,258.222290 
	C146.500092,264.742126 162.935226,269.025024 180.560501,270.601990 
	C180.691055,274.165710 182.832489,274.803436 185.177628,275.622711 
	C197.252869,279.841034 210.549805,280.295868 221.676971,287.444061 
	C222.048447,287.682709 222.652985,287.526550 223.128311,287.640320 
	C229.646408,289.200073 236.219696,290.567444 242.662720,292.393829 
	C252.927902,295.303680 262.521393,300.565918 273.469086,301.114227 
	C274.414978,301.161560 275.566040,301.449188 276.233002,302.053955 
	C282.530304,307.764130 290.621796,306.748901 298.097900,308.028625 
	C296.620117,314.751984 296.620117,314.751984 286.239899,314.893799 
	C284.705688,314.837189 283.836914,314.962036 282.968170,315.086914 
z"/>
<path fill="#008FF3" opacity="1.000000" stroke="none" 
	d="
M321.923279,433.070068 
	C319.552277,433.665894 317.601562,434.264465 314.264404,435.288422 
	C293.148895,417.661865 271.110046,399.264496 248.861786,380.692352 
	C253.646103,371.554260 258.398926,363.201294 262.437256,354.516113 
	C265.276642,348.409485 267.062134,341.819275 269.499146,335.514923 
	C270.151947,333.826111 271.467651,332.393524 273.077911,329.925415 
	C276.015442,338.308044 276.158051,337.800262 283.807159,339.948395 
	C289.945679,341.672272 296.068726,344.217926 301.416718,347.625977 
	C303.667572,349.060303 304.727386,353.614532 304.875366,356.817627 
	C305.124481,362.211029 304.214020,367.657990 303.788635,373.116333 
	C303.999512,373.300751 304.256927,373.713623 304.485077,373.698029 
	C310.569641,373.282684 313.091431,375.869202 313.338196,382.182800 
	C313.766968,393.152374 320.636505,401.555145 326.080322,410.440002 
	C328.659454,414.649506 331.315704,418.620087 326.972076,423.422302 
	C326.063324,424.426971 326.842438,426.800323 326.146545,428.195099 
	C325.244354,430.003357 323.643616,431.463043 321.923279,433.070068 
z"/>
<path fill="#008CEE" opacity="1.000000" stroke="none" 
	d="
M298.333466,307.683380 
	C290.621796,306.748901 282.530304,307.764130 276.233002,302.053955 
	C275.566040,301.449188 274.414978,301.161560 273.469086,301.114227 
	C262.521393,300.565918 252.927902,295.303680 242.662720,292.393829 
	C236.219696,290.567444 229.646408,289.200073 223.128311,287.640320 
	C222.652985,287.526550 222.048447,287.682709 221.676971,287.444061 
	C210.549805,280.295868 197.252869,279.841034 185.177628,275.622711 
	C182.832489,274.803436 180.691055,274.165710 180.996933,270.696838 
	C200.109909,270.468323 218.921860,268.270233 236.398087,260.178833 
	C247.921921,254.843384 258.800293,248.113846 270.646515,241.637405 
	C271.147736,242.413651 272.229706,244.379669 273.584961,246.134659 
	C277.919861,251.748215 282.451843,257.211609 286.709045,262.882172 
	C288.579712,265.373871 289.983032,268.218506 291.570374,270.919434 
	C291.987579,271.629303 292.100647,272.673950 292.689789,273.103394 
	C301.653168,279.637146 298.821259,289.169403 299.011536,297.894836 
	C299.080078,301.037903 298.728729,304.190094 298.333466,307.683380 
z"/>
<path fill="#008CEE" opacity="1.000000" stroke="none" 
	d="
M294.602539,241.523743 
	C299.489410,239.634781 303.069031,242.746857 306.931824,245.522766 
	C304.730774,247.320145 302.466278,248.762192 300.213135,250.197021 
	C298.466797,247.507004 296.626068,244.671539 294.602539,241.523743 
z"/>
<path fill="#008CEE" opacity="1.000000" stroke="none" 
	d="
M283.205261,315.212463 
	C283.836914,314.962036 284.705688,314.837189 285.802216,314.891663 
	C285.167450,315.160065 284.304932,315.249084 283.205261,315.212463 
z"/>
<path fill="#008CEE" opacity="1.000000" stroke="none" 
	d="
M130.534027,257.400421 
	C131.395447,258.192841 131.819839,258.760864 132.244232,259.328888 
	C130.394348,259.406372 128.462006,259.617493 130.534027,257.400421 
z"/>
</svg>